<svg width="393" height="232" viewBox="0 0 393 232" fill="none" xmlns="http://www.w3.org/2000/svg">
<path d="M153.414 127C153.414 114.5 145.914 104 130.914 104C115.914 104 102.414 116.5 102.414 131C102.414 145.5 107.414 159.5 126.914 159.5C146.414 159.5 153.484 153.035 186.5 120.5C208.938 98.5429 219.152 83.5488 229.41 79.8626C235.66 77.6188 238.193 77.542 244.414 78.5C250.635 79.458 253.414 89 253.414 89C253.414 89 248.914 85.5 243.414 87C237.914 88.5 225.914 100 225.403 115.763C224.892 131.526 236.193 136 243.193 139C250.193 142 259.541 139.644 275.888 131.309C282.94 127.623 290.633 124.258 293.197 123.777C297.845 122.655 303.615 124.899 306.5 128.905C308.103 130.989 310.667 130.668 327.816 126.341C344.414 122.495 350.414 122.495 350.414 122.495" stroke="black" stroke-width="3" stroke-linecap="round" stroke-linejoin="round"/>
<circle cx="366.414" cy="120.5" r="2" fill="black"/>
<circle cx="378.414" cy="119.5" r="2" fill="black"/>
<circle cx="390.414" cy="118.5" r="2" fill="black"/>
<path fill-rule="evenodd" clip-rule="evenodd" d="M129.914 86.5C129.914 87.3284 130.586 88 131.414 88C132.242 88 132.914 87.3284 132.914 86.5L132.914 65.25L132.914 54.625C132.914 53.7966 132.242 53.125 131.414 53.125C130.586 53.125 129.914 53.7966 129.914 54.625L129.914 65.25L129.914 86.5ZM129.914 33.375C129.914 34.2034 130.586 34.875 131.414 34.875C132.242 34.875 132.914 34.2034 132.914 33.375L132.914 22.75L132.914 1.5C132.914 0.67157 132.242 0 131.414 0C130.586 0 129.914 0.67157 129.914 1.5L129.914 22.75L129.914 33.375ZM131.414 47.5C133.071 47.5 134.414 46.1569 134.414 44.5C134.414 42.8431 133.071 41.5 131.414 41.5C129.757 41.5 128.414 42.8431 128.414 44.5C128.414 46.1569 129.757 47.5 131.414 47.5Z" fill="black"/>
<path fill-rule="evenodd" clip-rule="evenodd" d="M100.644 98.864C101.062 99.5791 101.981 99.8196 102.696 99.4012C103.411 98.9829 103.651 98.0641 103.233 97.349L92.5018 79.0077L87.1361 69.8371C86.7178 69.1221 85.799 68.8816 85.084 69.2999C84.3689 69.7183 84.1284 70.6371 84.5468 71.3521L89.9124 80.5227L100.644 98.864ZM73.8155 53.0108C74.2339 53.7258 75.1527 53.9663 75.8677 53.548C76.5827 53.1296 76.8233 52.2108 76.4049 51.4958L71.0393 42.3251L60.308 23.9839C59.8897 23.2688 58.9709 23.0283 58.2559 23.4467C57.5408 23.865 57.3003 24.7838 57.7187 25.4989L68.4499 43.8401L73.8155 53.0108ZM82.2433 64.4449C83.6734 63.6081 84.1544 61.7706 83.3177 60.3405C82.481 58.9104 80.6434 58.4294 79.2133 59.2661C77.7833 60.1029 77.3023 61.9404 78.139 63.3705C78.9757 64.8006 80.8133 65.2816 82.2433 64.4449Z" fill="black"/>
<path fill-rule="evenodd" clip-rule="evenodd" d="M87.0116 115.81C87.7735 116.135 88.6549 115.781 88.9802 115.019C89.3056 114.257 88.9518 113.376 88.1899 113.051L68.6477 104.704L58.8766 100.531C58.1147 100.206 57.2333 100.559 56.908 101.321C56.5826 102.083 56.9364 102.965 57.6983 103.29L67.4694 107.463L87.0116 115.81ZM38.156 94.9435C38.9179 95.2689 39.7992 94.915 40.1246 94.1532C40.45 93.3913 40.0962 92.51 39.3343 92.1846L29.5632 88.0114L10.021 79.6649C9.2591 79.3395 8.37773 79.6934 8.05234 80.4552C7.72696 81.2171 8.08078 82.0984 8.84264 82.4238L28.3849 90.7703L38.156 94.9435ZM51.735 99.112C52.3858 97.5883 51.6781 95.8255 50.1544 95.1747C48.6307 94.524 46.868 95.2316 46.2172 96.7553C45.5664 98.279 46.2741 100.042 47.7978 100.693C49.3215 101.343 51.0842 100.636 51.735 99.112Z" fill="black"/>
<path fill-rule="evenodd" clip-rule="evenodd" d="M86.5207 143.431C87.3491 143.427 88.0174 142.752 88.0135 141.924C88.0095 141.095 87.3347 140.427 86.5063 140.431L65.2566 140.532L54.6317 140.583C53.8033 140.587 53.1349 141.262 53.1389 142.09C53.1428 142.919 53.8176 143.587 54.646 143.583L65.2709 143.532L86.5207 143.431ZM33.3963 143.685C34.2247 143.681 34.893 143.006 34.8891 142.178C34.8851 141.349 34.2103 140.681 33.3819 140.685L22.757 140.736L1.50728 140.837C0.678856 140.841 0.0105045 141.516 0.0144653 142.344C0.0184261 143.173 0.693199 143.841 1.52162 143.837L22.7714 143.735L33.3963 143.685ZM47.5139 142.117C47.506 140.46 46.1564 139.124 44.4996 139.132C42.8428 139.139 41.5061 140.489 41.514 142.146C41.5219 143.803 42.8715 145.139 44.5283 145.131C46.1851 145.124 47.5218 143.774 47.5139 142.117Z" fill="black"/>
<path fill-rule="evenodd" clip-rule="evenodd" d="M151.722 96.1819C151.301 96.8953 151.538 97.8151 152.252 98.2362C152.965 98.6574 153.885 98.4204 154.306 97.707L165.109 79.4078L170.51 70.2582C170.931 69.5448 170.694 68.625 169.981 68.2039C169.267 67.7828 168.348 68.0197 167.927 68.7331L162.525 77.8827L151.722 96.1819ZM178.729 50.4338C178.308 51.1472 178.545 52.0669 179.258 52.4881C179.972 52.9092 180.892 52.6723 181.313 51.9589L186.714 42.8093L197.517 24.51C197.938 23.7966 197.701 22.8769 196.988 22.4558C196.274 22.0346 195.355 22.2715 194.933 22.9849L184.131 41.2842L178.729 50.4338ZM172.84 63.36C174.267 64.2023 176.107 63.7284 176.949 62.3017C177.791 60.8749 177.317 59.0354 175.891 58.1931C174.464 57.3508 172.624 57.8247 171.782 59.2515C170.94 60.6782 171.414 62.5177 172.84 63.36Z" fill="black"/>
<path d="M129.787 201.738C129.889 203.896 129.587 205.616 128.879 206.899C128.169 208.134 127.096 209.315 125.66 210.44C125.287 210.698 124.774 211.011 124.118 211.379C123.463 211.746 122.735 212.093 121.933 212.42C121.132 212.746 120.28 213.027 119.379 213.262C118.477 213.497 117.642 213.633 116.875 213.67C114.718 213.772 113.076 213.61 111.95 213.183C110.827 212.804 110.251 212.303 110.221 211.68C110.189 211.008 110.355 210.448 110.718 209.998C111.081 209.548 111.405 209.293 111.69 209.231L112.509 209.769C112.76 209.997 113.108 210.245 113.553 210.512C113.996 210.731 114.697 210.818 115.656 210.772C116.567 210.729 117.663 210.533 118.944 210.183C120.222 209.786 121.422 209.248 122.543 208.57C123.71 207.842 124.678 206.979 125.447 205.981C126.265 204.981 126.644 203.858 126.584 202.612C126.532 201.509 125.645 200.542 123.924 199.711C122.248 198.829 119.628 198.305 116.064 198.139C114.235 198.081 112.427 197.951 110.639 197.748C108.849 197.497 107.223 197.142 105.759 196.683C104.341 196.174 103.182 195.532 102.28 194.758C101.376 193.936 100.894 192.902 100.835 191.655C100.778 190.456 101.058 189.29 101.677 188.155C102.296 187.02 103.063 185.975 103.979 185.018C104.94 184.011 105.931 183.123 106.951 182.354C107.972 181.584 108.83 180.943 109.527 180.429C110.086 180.066 110.857 179.597 111.839 179.022C112.866 178.396 113.944 177.816 115.072 177.282C116.245 176.698 117.399 176.21 118.534 175.82C119.714 175.379 120.712 175.14 121.527 175.101C122.486 175.055 123.146 175.288 123.507 175.8C123.867 176.311 124.07 177.046 124.116 178.005C124.155 178.82 124.1 179.688 123.952 180.608C123.803 181.528 123.63 182.425 123.431 183.3C123.232 184.174 123.029 184.953 122.821 185.635C122.659 186.268 122.535 186.682 122.448 186.878C122.277 187.319 122.075 187.617 121.842 187.772C121.609 187.927 121.445 188.007 121.349 188.012C121.157 188.021 121.055 187.906 121.044 187.666C121.037 187.522 121.048 187.257 121.078 186.871C121.153 186.435 121.225 185.927 121.294 185.348C121.41 184.765 121.477 184.137 121.493 183.464C121.557 182.788 121.573 182.115 121.541 181.443C121.49 180.389 121.406 179.624 121.287 179.149C121.169 178.674 120.774 178.452 120.102 178.484C119.431 178.516 118.529 178.751 117.397 179.19C116.262 179.58 115.108 180.068 113.934 180.652C112.667 181.289 111.432 182.093 110.229 183.063C109.074 184.031 108.039 185.017 107.126 186.022C106.213 187.026 105.466 187.999 104.886 188.939C104.352 189.83 104.097 190.539 104.122 191.066C104.15 191.642 104.559 192.175 105.352 192.666C106.19 193.106 107.217 193.49 108.434 193.816C109.699 194.141 111.081 194.411 112.581 194.628C114.081 194.845 115.554 194.991 116.999 195.067C118.205 195.153 119.532 195.282 120.982 195.454C122.432 195.625 123.792 195.945 125.064 196.413C126.336 196.881 127.425 197.55 128.331 198.42C129.235 199.242 129.72 200.348 129.787 201.738ZM153.739 199.085C153.76 199.516 153.494 199.986 152.941 200.492C152.389 200.999 151.739 201.487 150.993 201.955C150.244 202.375 149.469 202.748 148.667 203.074C147.914 203.399 147.345 203.57 146.962 203.588C146.53 203.609 146.045 203.512 145.506 203.297C145.016 203.08 144.522 202.815 144.027 202.502C143.579 202.187 143.181 201.894 142.832 201.622C142.482 201.35 142.258 201.169 142.157 201.078C142.02 201.228 141.818 201.526 141.551 201.971C141.284 202.417 140.947 202.913 140.541 203.461C140.18 203.959 139.769 204.411 139.308 204.817C138.894 205.221 138.448 205.435 137.969 205.458C136.722 205.517 135.611 204.897 134.636 203.598C133.662 202.299 132.821 200.801 132.116 199.105C131.458 197.406 130.924 195.774 130.513 194.207C130.148 192.591 129.952 191.495 129.924 190.92C129.908 190.584 130.064 190.312 130.39 190.105C130.762 189.847 131.044 189.713 131.236 189.704C131.907 189.672 132.374 189.89 132.637 190.358C132.897 190.778 133.04 191.252 133.065 191.779C133.085 192.211 133.242 192.972 133.534 194.064C133.874 195.153 134.263 196.263 134.702 197.396C135.14 198.528 135.597 199.54 136.071 200.43C136.544 201.273 136.948 201.686 137.284 201.67C137.907 201.64 138.416 201.232 138.811 200.444C139.252 199.606 139.592 198.677 139.832 197.656C140.069 196.588 140.238 195.595 140.339 194.677C140.437 193.711 140.479 193.084 140.466 192.797C140.463 192.749 140.456 192.605 140.445 192.365C140.479 192.075 140.514 191.785 140.548 191.495C140.582 191.205 140.593 190.94 140.582 190.701C140.619 190.459 140.635 190.29 140.63 190.194C140.614 189.858 140.532 189.646 140.383 189.557C140.233 189.42 140.148 189.16 140.13 188.776C140.116 188.488 140.248 188.218 140.524 187.964C140.798 187.663 141.414 187.49 142.373 187.444C142.757 187.426 143.05 187.532 143.253 187.762C143.502 187.943 143.682 188.175 143.791 188.458C143.901 188.741 143.962 189.026 143.976 189.314C144.035 189.551 144.067 189.718 144.072 189.814C144.074 189.862 144.066 190.199 144.048 190.824C144.03 191.45 144.015 192.147 144.003 192.917C144.038 193.636 144.047 194.332 144.031 195.006C144.015 195.679 144.01 196.088 144.017 196.232C144.024 196.376 144.109 196.66 144.274 197.085C144.438 197.509 144.628 197.957 144.842 198.427C145.102 198.847 145.386 199.242 145.691 199.612C145.995 199.934 146.315 200.087 146.65 200.071C147.226 200.044 147.75 199.947 148.222 199.78C148.741 199.563 149.211 199.348 149.633 199.136C150.101 198.874 150.524 198.661 150.9 198.499C151.275 198.289 151.63 198.176 151.966 198.16C152.397 198.14 152.785 198.217 153.13 198.393C153.523 198.567 153.726 198.797 153.739 199.085ZM174.753 201.184C174.767 201.472 174.685 201.764 174.507 202.061C174.328 202.358 174.101 202.633 173.825 202.886C173.597 203.138 173.319 203.367 172.993 203.575C172.712 203.732 172.452 203.817 172.212 203.828C171.397 203.867 170.334 203.749 169.024 203.475C167.759 203.151 166.724 202.624 165.921 201.893C165.067 201.117 164.302 200.192 163.626 199.119C162.948 197.998 162.173 196.353 161.301 194.184C160.874 196.319 160.35 198.434 159.729 200.53C159.156 202.623 158.143 204.57 156.691 206.369C156.6 206.469 156.458 206.524 156.266 206.533C155.931 206.549 155.563 206.398 155.164 206.081C154.764 205.764 154.556 205.437 154.54 205.102C154.525 204.766 154.44 204.001 154.287 202.807C154.18 201.563 154.043 200.2 153.876 198.718C153.707 197.188 153.539 195.659 153.37 194.129C153.246 192.549 153.161 191.255 153.113 190.249C153.09 189.769 153.084 189.145 153.096 188.375C153.105 187.558 153.216 186.856 153.428 186.269C153.471 186.171 153.63 185.971 153.904 185.67C154.226 185.366 154.579 185.205 154.962 185.187C155.298 185.171 155.5 185.378 155.569 185.807C155.637 186.236 155.684 186.714 155.709 187.242L156.25 198.605C156.261 198.845 156.301 199.179 156.369 199.608C156.486 200.035 156.621 200.341 156.774 200.526C157.246 199.35 157.662 197.985 158.02 196.43C158.424 194.825 158.809 193.317 159.175 191.906C159.538 190.447 159.912 189.228 160.298 188.249C160.682 187.221 161.089 186.698 161.521 186.677C162 186.654 162.388 186.732 162.685 186.91C162.982 187.088 163.24 187.46 163.459 188.026C163.765 189.405 164.016 190.643 164.212 191.739C164.406 192.787 164.62 193.738 164.853 194.592C165.133 195.443 165.484 196.243 165.904 196.992C166.37 197.691 166.977 198.335 167.726 198.924C168.427 199.515 169.191 199.935 170.02 200.184C170.897 200.431 171.647 200.539 172.27 200.51C172.558 200.496 172.867 200.433 173.198 200.321C173.527 200.162 173.763 200.078 173.907 200.071C174.099 200.062 174.275 200.222 174.435 200.551C174.642 200.877 174.749 201.089 174.753 201.184ZM207.834 165.299C207.843 165.491 207.749 166.048 207.553 166.971C207.354 167.845 207.115 168.866 206.834 170.032C206.553 171.199 206.226 172.416 205.854 173.683C205.528 174.9 205.24 175.923 204.991 176.752C204.907 176.996 204.823 177.264 204.741 177.556C204.659 177.849 204.426 178.004 204.042 178.022C203.755 178.036 203.51 177.951 203.309 177.769C203.106 177.538 202.95 177.281 202.84 176.998C202.728 176.667 202.642 176.359 202.58 176.073C202.564 175.738 202.552 175.474 202.542 175.282C202.526 174.947 202.635 174.197 202.868 173.032C203.101 171.868 203.403 170.652 203.775 169.385C204.148 168.118 204.575 166.992 205.056 166.008C205.536 164.976 206.039 164.448 206.567 164.423C206.902 164.407 207.195 164.489 207.443 164.669C207.692 164.85 207.822 165.06 207.834 165.299ZM209.699 195.413C209.74 196.276 209.359 196.847 208.555 197.125C207.987 197.296 207.257 197.619 206.367 198.094C205.474 198.521 204.535 198.974 203.548 199.454C202.608 199.883 201.69 200.287 200.795 200.666C199.898 200.997 199.137 201.177 198.514 201.207C197.459 201.257 196.588 201.13 195.901 200.827C195.214 200.523 194.855 200.06 194.826 199.436C194.787 198.621 194.899 197.943 195.161 197.402C195.422 196.813 195.709 196.295 196.025 195.847C196.022 195.799 195.851 195.735 195.511 195.656C195.171 195.576 194.804 195.449 194.411 195.275C194.019 195.102 193.649 194.903 193.302 194.679C192.955 194.456 192.773 194.176 192.757 193.84C192.716 192.977 193.125 191.973 193.984 190.827C194.89 189.678 195.895 188.573 196.997 187.512C198.148 186.448 199.234 185.531 200.254 184.762C201.323 183.99 201.975 183.551 202.21 183.443C202.584 183.233 203.055 183.019 203.621 182.799C204.185 182.532 204.587 182.393 204.826 182.382C205.45 182.352 205.777 182.673 205.809 183.344C205.828 183.728 205.799 184.137 205.724 184.574C205.646 184.962 205.415 185.165 205.032 185.183C204.744 185.197 204.527 185.183 204.381 185.142C204.233 185.053 204.111 185.011 204.015 185.015C203.727 185.029 203.349 185.167 202.881 185.43C202.459 185.642 202.085 185.876 201.761 186.132C201.346 186.488 200.863 186.943 200.312 187.498C199.76 188.005 199.209 188.536 198.658 189.09C198.108 189.645 197.607 190.222 197.155 190.82C196.7 191.37 196.341 191.892 196.076 192.385C196.174 192.428 196.345 192.492 196.59 192.577C196.88 192.611 197.097 192.625 197.24 192.618C197.432 192.609 197.667 192.501 197.946 192.296C198.224 192.09 198.503 191.885 198.782 191.68C199.106 191.424 199.431 191.192 199.758 190.984C200.132 190.774 200.463 190.662 200.751 190.649C201.278 190.624 201.67 190.773 201.925 191.097C202.179 191.374 202.309 191.584 202.316 191.728C202.355 192.543 202.031 193.327 201.347 194.08C200.662 194.834 199.993 195.418 199.34 195.834C199.214 196.224 199.155 196.491 199.161 196.635C199.182 197.067 199.432 197.271 199.911 197.248C200.247 197.232 200.744 197.064 201.401 196.745C202.104 196.375 202.856 196.003 203.655 195.628C204.499 195.204 205.299 194.829 206.052 194.505C206.851 194.131 207.538 193.93 208.114 193.902C208.593 193.88 208.962 194.054 209.22 194.427C209.526 194.796 209.686 195.125 209.699 195.413ZM201.209 213.909C201.25 214.772 201.184 215.905 201.01 217.307C200.837 218.708 200.661 220.062 200.483 221.368C200.268 222.916 200.008 224.514 199.702 226.163C199.617 226.407 199.388 226.634 199.013 226.844C198.689 227.1 198.287 227.239 197.808 227.262C197.52 227.276 197.3 227.19 197.147 227.005C196.994 226.82 196.863 226.586 196.753 226.303C196.694 226.066 196.658 225.827 196.647 225.587C196.635 225.348 196.627 225.18 196.623 225.084C196.586 224.317 196.617 223.45 196.715 222.485C196.864 221.564 197.033 220.571 197.222 219.505C197.414 218.487 197.605 217.445 197.794 216.378C197.984 215.312 198.126 214.248 198.219 213.187C198.242 212.657 198.332 212.028 198.49 211.3C198.695 210.569 199.11 210.189 199.733 210.159C200.356 210.13 200.733 210.472 200.863 211.187C201.043 211.947 201.159 212.854 201.209 213.909ZM250.037 196.016C250.139 198.174 249.837 199.894 249.129 201.177C248.419 202.412 247.346 203.593 245.91 204.718C245.538 204.976 245.024 205.289 244.369 205.657C243.713 206.024 242.985 206.371 242.184 206.698C241.382 207.024 240.531 207.305 239.629 207.54C238.727 207.775 237.892 207.911 237.125 207.947C234.968 208.05 233.326 207.888 232.201 207.461C231.077 207.082 230.501 206.581 230.471 205.957C230.439 205.286 230.605 204.726 230.968 204.276C231.331 203.826 231.655 203.57 231.94 203.509L232.759 204.047C233.01 204.275 233.358 204.523 233.803 204.79C234.246 205.009 234.947 205.096 235.906 205.05C236.817 205.007 237.913 204.81 239.194 204.461C240.472 204.064 241.672 203.526 242.793 202.848C243.96 202.12 244.928 201.257 245.698 200.259C246.515 199.259 246.894 198.136 246.835 196.889C246.782 195.787 245.895 194.82 244.174 193.989C242.498 193.107 239.878 192.583 236.314 192.416C234.485 192.359 232.677 192.229 230.889 192.026C229.099 191.775 227.473 191.42 226.009 190.961C224.592 190.451 223.432 189.81 222.53 189.036C221.626 188.214 221.144 187.18 221.085 185.933C221.028 184.734 221.309 183.568 221.927 182.433C222.546 181.298 223.313 180.253 224.229 179.296C225.19 178.289 226.181 177.401 227.202 176.632C228.222 175.862 229.081 175.221 229.777 174.707C230.336 174.344 231.107 173.875 232.089 173.3C233.116 172.674 234.194 172.094 235.322 171.56C236.495 170.976 237.649 170.488 238.784 170.098C239.964 169.657 240.962 169.417 241.777 169.379C242.736 169.333 243.396 169.566 243.757 170.077C244.117 170.589 244.321 171.324 244.366 172.283C244.405 173.098 244.35 173.966 244.202 174.886C244.053 175.806 243.88 176.703 243.681 177.577C243.483 178.452 243.279 179.23 243.071 179.913C242.909 180.546 242.785 180.96 242.698 181.156C242.527 181.597 242.325 181.895 242.092 182.05C241.859 182.205 241.695 182.285 241.599 182.29C241.407 182.299 241.305 182.184 241.294 181.944C241.287 181.8 241.299 181.535 241.328 181.149C241.404 180.713 241.476 180.205 241.544 179.625C241.661 179.043 241.727 178.415 241.743 177.742C241.807 177.066 241.823 176.392 241.791 175.721C241.741 174.666 241.656 173.902 241.537 173.427C241.419 172.952 241.024 172.73 240.353 172.762C239.681 172.794 238.779 173.029 237.647 173.468C236.512 173.858 235.358 174.345 234.185 174.93C232.917 175.567 231.682 176.37 230.479 177.341C229.324 178.309 228.289 179.295 227.376 180.3C226.463 181.304 225.716 182.277 225.136 183.217C224.602 184.108 224.347 184.817 224.372 185.344C224.4 185.919 224.81 186.452 225.602 186.943C226.44 187.384 227.467 187.768 228.684 188.094C229.949 188.418 231.331 188.689 232.831 188.906C234.331 189.123 235.804 189.269 237.249 189.344C238.455 189.431 239.782 189.56 241.232 189.732C242.682 189.903 244.043 190.223 245.314 190.691C246.586 191.159 247.675 191.828 248.581 192.698C249.485 193.52 249.971 194.626 250.037 196.016ZM284.346 189.842C284.387 190.705 284.031 191.804 283.277 193.137C282.57 194.42 281.573 195.693 280.288 196.955C279.002 198.218 277.493 199.323 275.76 200.27C274.025 201.17 272.198 201.665 270.28 201.756C269.417 201.798 268.5 201.697 267.527 201.455C266.554 201.213 265.6 200.85 264.664 200.366C263.726 199.834 262.879 199.201 262.123 198.469C261.365 197.688 260.794 196.802 260.411 195.811C260.137 196.112 259.8 196.609 259.4 197.301C259.049 197.99 258.65 198.706 258.205 199.448C257.758 200.142 257.259 200.766 256.708 201.321C256.156 201.828 255.568 202.096 254.945 202.126C254.321 202.156 253.779 201.869 253.318 201.266C252.902 200.613 252.557 199.909 252.28 199.153C252.002 198.349 251.798 197.59 251.667 196.876C251.537 196.161 251.47 195.756 251.465 195.66C251.438 195.085 251.554 193.998 251.815 192.4C252.073 190.753 252.496 189.051 253.086 187.293C253.675 185.535 254.441 183.961 255.384 182.571C256.375 181.178 257.565 180.449 258.956 180.383C259.483 180.358 259.83 180.581 259.997 181.054C260.209 181.476 260.326 181.903 260.346 182.335L260.449 184.492C260.698 184.673 260.944 184.805 261.188 184.89C261.478 184.924 261.723 185.008 261.921 185.143C262.166 185.228 262.341 185.387 262.449 185.623C262.604 185.855 262.694 186.236 262.719 186.763C262.735 187.099 262.726 187.411 262.692 187.701C262.655 187.943 262.643 188.184 262.654 188.424C262.713 189.671 262.867 190.889 263.116 192.078C263.365 193.268 263.8 194.328 264.421 195.26C265.04 196.143 265.867 196.873 266.904 197.448C267.938 197.976 269.294 198.199 270.972 198.119C273.082 198.019 274.835 197.503 276.233 196.572C277.676 195.59 278.852 194.549 279.76 193.449C280.715 192.298 281.459 191.277 281.993 190.387C282.525 189.449 282.983 188.97 283.367 188.952C283.99 188.922 284.316 189.219 284.346 189.842ZM258.952 187.879C258.943 187.687 258.887 187.522 258.784 187.383C258.679 187.195 258.623 187.03 258.616 186.886C258.607 186.694 258.647 186.524 258.736 186.376C258.825 186.227 258.864 186.033 258.853 185.794C258.846 185.65 258.793 185.556 258.695 185.513C258.595 185.421 258.542 185.328 258.538 185.232C258.111 185.348 257.675 185.778 257.229 186.52C256.832 187.259 256.441 188.119 256.055 189.098C255.717 190.076 255.452 191.073 255.26 192.092C255.066 193.062 254.984 193.859 255.013 194.482C255.029 194.818 255.152 195.364 255.38 196.122C255.608 196.88 255.848 197.374 256.099 197.602C256.834 195.885 257.5 194.219 258.096 192.605C258.74 190.989 259.025 189.414 258.952 187.879ZM303.502 195.058C303.515 195.346 303.433 195.638 303.255 195.935C303.077 196.231 302.85 196.506 302.573 196.76C302.345 197.011 302.068 197.24 301.741 197.448C301.46 197.606 301.2 197.69 300.96 197.702C300.145 197.74 299.082 197.623 297.772 197.349C296.507 197.025 295.473 196.497 294.669 195.766C293.815 194.99 293.051 194.066 292.375 192.992C291.697 191.871 290.922 190.226 290.05 188.057C289.623 190.192 289.098 192.307 288.477 194.403C287.904 196.497 286.892 198.443 285.44 200.242C285.348 200.343 285.207 200.397 285.015 200.407C284.679 200.423 284.312 200.272 283.912 199.955C283.513 199.637 283.305 199.311 283.289 198.975C283.273 198.639 283.188 197.875 283.036 196.68C282.928 195.436 282.791 194.073 282.625 192.591C282.456 191.062 282.287 189.532 282.118 188.002C281.995 186.422 281.909 185.129 281.861 184.122C281.838 183.643 281.833 183.018 281.844 182.249C281.853 181.431 281.964 180.729 282.176 180.143C282.22 180.044 282.379 179.845 282.653 179.543C282.974 179.24 283.327 179.079 283.711 179.06C284.046 179.045 284.248 179.251 284.317 179.68C284.385 180.11 284.432 180.588 284.457 181.115L284.998 192.478C285.009 192.718 285.049 193.053 285.118 193.482C285.234 193.909 285.369 194.215 285.522 194.4C285.995 193.224 286.41 191.859 286.769 190.304C287.173 188.699 287.558 187.191 287.923 185.78C288.286 184.321 288.66 183.102 289.046 182.122C289.43 181.095 289.837 180.571 290.269 180.55C290.748 180.528 291.137 180.605 291.433 180.783C291.73 180.961 291.988 181.334 292.207 181.9C292.513 183.279 292.764 184.516 292.961 185.612C293.155 186.66 293.368 187.611 293.601 188.465C293.882 189.317 294.232 190.117 294.652 190.866C295.118 191.564 295.725 192.208 296.474 192.797C297.175 193.389 297.94 193.809 298.769 194.058C299.645 194.304 300.395 194.413 301.019 194.383C301.306 194.369 301.616 194.307 301.947 194.195C302.276 194.035 302.512 193.952 302.656 193.945C302.847 193.936 303.023 194.096 303.183 194.424C303.391 194.751 303.497 194.962 303.502 195.058ZM323.837 191.351C323.848 191.591 323.74 191.836 323.511 192.087C323.329 192.288 323.219 192.51 323.183 192.752C323.208 193.279 323.328 193.778 323.542 194.248C323.805 194.716 323.952 195.286 323.984 195.957C324.014 196.581 323.837 196.901 323.453 196.92C322.974 196.942 322.617 197.031 322.385 197.187C322.197 197.292 321.842 197.405 321.319 197.526C321.032 197.539 320.708 197.291 320.347 196.779C320.144 196.549 319.962 196.269 319.802 195.94C319.8 195.892 319.661 195.995 319.385 196.248C319.156 196.499 318.738 196.808 318.131 197.173C317.569 197.488 316.768 197.814 315.727 198.152C314.731 198.44 313.443 198.621 311.86 198.697C310.518 198.761 309.33 198.529 308.295 198.001C307.259 197.426 306.382 196.675 305.665 195.748C304.996 194.819 304.466 193.763 304.073 192.58C303.726 191.347 303.523 190.107 303.463 188.861C303.409 187.71 303.477 186.625 303.669 185.607C303.906 184.539 304.247 183.61 304.69 182.82C305.13 181.982 305.699 181.306 306.395 180.792C307.092 180.279 307.919 179.999 308.878 179.953C309.789 179.91 310.714 180.154 311.652 180.686C312.59 181.218 313.435 181.803 314.186 182.44C314.937 183.077 315.542 183.673 316.001 184.227C316.506 184.732 316.758 184.984 316.758 184.984C315.909 181.277 315.149 177.925 314.478 174.929C314.176 173.646 313.876 172.387 313.577 171.152C313.324 169.867 313.077 168.725 312.838 167.727C312.598 166.729 312.39 165.898 312.214 165.234C312.084 164.519 312.016 164.09 312.009 163.946C311.947 163.661 311.875 163.16 311.793 162.443C311.709 161.678 311.623 160.889 311.536 160.076C311.45 159.264 311.366 158.523 311.286 157.854C311.207 157.185 311.138 156.756 311.081 156.566C310.914 156.093 310.694 155.503 310.42 154.796C310.194 154.085 310.079 153.682 310.074 153.587C310.063 153.347 310.169 153.053 310.393 152.706C310.614 152.311 310.917 152.105 311.3 152.087C311.588 152.073 311.853 152.084 312.095 152.121C312.337 152.157 312.559 152.291 312.763 152.522C312.966 152.752 313.152 153.128 313.321 153.648C313.535 154.119 313.736 154.806 313.924 155.71C313.994 156.187 314.181 157.091 314.485 158.422C314.789 159.753 315.098 161.204 315.413 162.775C315.728 164.346 316.04 165.845 316.348 167.272C316.656 168.699 316.874 169.746 317.002 170.412C317.328 172.223 317.735 174.198 318.221 176.337C318.753 178.426 319.281 180.443 319.806 182.389C320.331 184.334 320.846 186.063 321.351 187.577C321.853 189.043 322.284 190.031 322.645 190.543C322.75 190.73 322.949 190.865 323.241 190.947C323.531 190.981 323.73 191.116 323.837 191.351ZM318.583 193.043C318.528 192.901 318.188 192.317 317.563 191.289C316.983 190.212 316.232 189.07 315.309 187.864C314.433 186.609 313.443 185.503 312.34 184.546C311.286 183.587 310.279 183.13 309.32 183.176C308.505 183.215 307.863 183.87 307.395 185.142C306.975 186.411 306.804 187.861 306.881 189.491C306.968 191.313 307.565 192.75 308.672 193.803C309.827 194.853 311.076 195.346 312.419 195.282C313.569 195.228 314.759 194.979 315.987 194.536C317.216 194.093 318.081 193.595 318.583 193.043ZM345.989 194.334C346.041 194.427 346.072 194.57 346.081 194.762C346.095 195.049 345.9 195.491 345.496 196.087C345.361 196.286 345.064 196.612 344.605 197.066C344.146 197.521 343.52 197.983 342.725 198.453C341.931 198.924 340.942 199.355 339.759 199.748C338.625 200.138 337.266 200.371 335.684 200.446C334.581 200.499 333.491 200.31 332.413 199.881C331.333 199.404 330.363 198.705 329.502 197.785C328.639 196.817 327.91 195.626 327.314 194.213C326.716 192.752 326.37 191.038 326.277 189.073C326.188 187.203 326.344 185.441 326.746 183.788C327.148 182.135 327.679 180.668 328.339 179.388C329.046 178.105 329.839 177.082 330.715 176.319C331.592 175.557 332.462 175.155 333.325 175.114C334.092 175.077 334.867 175.209 335.65 175.508C336.479 175.757 337.217 176.106 337.863 176.556C338.557 177.003 339.11 177.53 339.524 178.135C339.935 178.692 340.155 179.282 340.185 179.905C340.219 180.624 339.919 181.383 339.284 182.183C338.697 182.979 337.964 183.735 337.085 184.45C336.204 185.116 335.318 185.687 334.427 186.162C333.535 186.589 332.825 186.815 332.297 186.84C332.01 186.854 331.74 186.746 331.489 186.518C331.284 186.239 331.172 185.908 331.153 185.525C331.122 184.854 331.384 184.312 331.941 183.901C332.546 183.488 333.202 183.121 333.907 182.799C334.61 182.429 335.239 182.015 335.794 181.556C336.397 181.095 336.68 180.48 336.643 179.713C336.639 179.617 336.508 179.383 336.25 179.011C335.992 178.639 335.335 178.478 334.28 178.528C333.801 178.551 333.263 178.865 332.667 179.47C332.069 180.027 331.505 180.799 330.976 181.785C330.444 182.723 330.017 183.849 329.695 185.162C329.37 186.427 329.244 187.802 329.314 189.288C329.374 190.535 329.643 191.651 330.122 192.638C330.65 193.622 331.29 194.456 332.044 195.141C332.795 195.778 333.659 196.266 334.636 196.604C335.613 196.942 336.605 197.087 337.612 197.039C338.331 197.005 339.092 196.824 339.893 196.498C340.74 196.121 341.515 195.748 342.218 195.378C342.967 194.958 343.598 194.591 344.112 194.279C344.672 193.916 345.023 193.731 345.167 193.724C345.311 193.717 345.458 193.782 345.609 193.919C345.807 194.054 345.934 194.192 345.989 194.334ZM363.761 179.072C363.777 179.407 363.647 179.702 363.371 179.955C363.092 180.161 362.765 180.344 362.388 180.506C362.011 180.669 361.633 180.807 361.254 180.921C360.873 180.987 360.562 181.026 360.323 181.037C359.604 181.071 359.122 181.046 358.877 180.962C358.633 180.877 358.439 180.839 358.295 180.845C357.097 180.902 356.142 181.044 355.432 181.27C354.722 181.496 354.162 181.835 353.751 182.287C353.388 182.737 353.15 183.301 353.038 183.979C352.972 184.607 352.961 185.376 353.004 186.287C353.077 187.821 353.183 189.042 353.322 189.948C353.51 190.852 353.665 191.59 353.788 192.16C353.959 192.729 354.101 193.179 354.213 193.51C354.37 193.791 354.456 194.075 354.469 194.363C354.488 194.746 354.291 195.164 353.88 195.616C353.517 196.066 353.168 196.299 352.832 196.315C352.257 196.342 351.706 195.864 351.178 194.88C350.697 193.845 350.255 192.641 349.853 191.266C349.497 189.842 349.19 188.439 348.932 187.057C348.674 185.676 348.528 184.626 348.494 183.907C348.455 183.092 348.49 182.321 348.6 181.595C348.707 180.821 348.868 180.165 349.083 179.626C349.295 179.039 349.537 178.571 349.809 178.222C350.081 177.872 350.36 177.691 350.648 177.677C350.888 177.666 351.084 177.753 351.237 177.938C351.388 178.075 351.517 178.261 351.624 178.496C351.729 178.683 351.834 178.87 351.939 179.057C352.09 179.194 352.261 179.258 352.453 179.249C352.884 179.229 353.569 178.98 354.508 178.503C355.446 178.026 356.61 177.754 358.001 177.688C359.295 177.626 360.257 177.629 360.884 177.695C361.558 177.711 362.212 177.824 362.847 178.034C362.993 178.075 363.166 178.187 363.367 178.369C363.614 178.502 363.745 178.736 363.761 179.072ZM382.722 190.639C382.76 191.455 382.507 192.187 381.961 192.838C381.461 193.438 380.79 193.975 379.948 194.448C379.151 194.87 378.255 195.225 377.259 195.513C376.264 195.8 375.314 196.038 374.41 196.225C373.503 196.364 372.692 196.475 371.975 196.557C371.304 196.589 370.872 196.609 370.68 196.619C369.625 196.669 368.802 196.54 368.211 196.231C367.62 195.923 367.304 195.338 367.262 194.475C367.249 194.187 367.261 193.946 367.3 193.752C367.337 193.51 367.523 193.381 367.858 193.365C368.002 193.358 368.244 193.395 368.584 193.475C368.922 193.507 369.187 193.518 369.379 193.509C369.571 193.5 370.169 193.447 371.174 193.351C372.224 193.205 373.32 193.009 374.461 192.762C375.651 192.514 376.693 192.2 377.588 191.821C378.529 191.392 378.985 190.889 378.958 190.314C378.953 190.218 378.436 189.954 377.407 189.523C376.423 189.041 374.919 188.248 372.896 187.142C371.316 186.257 370.192 185.349 369.523 184.42C368.852 183.443 368.476 182.115 368.397 180.437C368.346 179.382 368.521 178.509 368.921 177.817C369.368 177.123 369.966 176.566 370.715 176.146C371.512 175.723 372.41 175.416 373.41 175.225C374.456 174.983 375.554 174.834 376.705 174.779C376.801 174.775 377.091 174.809 377.575 174.882C378.107 174.953 378.666 175.095 379.253 175.307C379.837 175.471 380.353 175.711 380.801 176.026C381.294 176.291 381.55 176.615 381.568 176.999C381.573 177.095 381.484 177.243 381.301 177.444C381.166 177.643 380.92 178.015 380.561 178.56C380.415 178.519 380.148 178.46 379.76 178.382C379.42 178.302 379.007 178.226 378.523 178.153C378.085 178.03 377.625 177.955 377.143 177.93C376.659 177.857 376.273 177.827 375.986 177.841C374.739 177.9 373.744 178.188 372.999 178.704C372.253 179.172 371.91 180.053 371.972 181.348C372.002 181.971 372.269 182.535 372.773 183.04C373.326 183.542 373.997 184.015 374.787 184.458C375.575 184.853 376.411 185.269 377.297 185.708C378.229 186.096 379.09 186.535 379.883 187.026C380.675 187.517 381.326 188.063 381.835 188.663C382.39 189.214 382.685 189.872 382.722 190.639Z" fill="black"/>
</svg>
